<?xml version="1.0" encoding="utf-8"?>
<!-- Generator: Adobe Illustrator 23.0.1, SVG Export Plug-In . SVG Version: 6.00 Build 0)  -->
<svg version="1.1" id="Capa_1" xmlns="http://www.w3.org/2000/svg" xmlns:xlink="http://www.w3.org/1999/xlink" x="0px" y="0px"
	 width="587.9px" height="203.4px" viewBox="0 0 587.9 203.4" style="enable-background:new 0 0 587.9 203.4;" xml:space="preserve"
	>
<style type="text/css">
	.st0{fill:#8BCEDE;}
	.st1{fill:#0089A9;}
	.st2{fill:#175E83;}
	.st3{fill:#FFFFFF;}
</style>
<g>
	<path class="st0" d="M584.4,28l-65.5,112.8c-9.1,15.6-25.9,27.7-49.4,28.4H339l12.5-21.5c27.8,0.8,35.4-14.9,35.4-14.9l45.5-79.3
		l32.7,94.1h28.4L566.7,21h-26l-60.1,103.4l-27.3-79.6c-8.1-18.4-20.3-22.4-28.6-23L437.3,0h132C587.4,0,591.8,15.2,584.4,28z"/>
	<path class="st1" d="M259.8,46.8h138.9L328,169.2H163.1l12.4-21.5c7.6,0.4,25.9,0.1,34.8-14.8L230,98.6h115.8l14.7-25.5h-116
		L259.8,46.8z"/>
	<path class="st1" d="M425.7,0l-12.3,21.3H273.1c-15.4-0.1-24.7,5.1-30.6,9.6L260.2,0H425.7z"/>
	<path class="st2" d="M198.3,46.3l14.6-24.9h-88c0,0-30.2-0.7-46.3,26.1c-16.1,26.9-44.8,77.8-44.8,77.8S20.8,148,49.5,148H162
		l-12.3,21.2H20.5c-18,0-25.6-12.9-16.7-28.6l64.5-112C79,10,99.2,0,117.3,0h130.5l-71,122.5l-115.9-0.1L105,46.3H198.3z"/>
	<polygon class="st3" points="414.3,21.3 399.6,46.8 398.7,46.8 413.4,21.3 	"/>
	<g>
		<path class="st2" d="M13.7,200.7c-0.3,0.3-0.7,0.7-1.1,1c-0.4,0.3-0.9,0.6-1.4,0.9c-0.5,0.2-1.1,0.4-1.8,0.6
			c-0.6,0.1-1.3,0.2-2.1,0.2c-1.1,0-2.1-0.2-3-0.5s-1.7-0.8-2.3-1.4c-0.6-0.6-1.1-1.4-1.5-2.2c-0.3-0.9-0.5-1.8-0.5-2.8
			c0-1.4,0.2-2.6,0.7-3.9c0.5-1.2,1.2-2.3,2-3.1c0.8-0.9,1.9-1.6,3-2.1c1.2-0.5,2.4-0.8,3.8-0.8c1.3,0,2.4,0.2,3.4,0.7
			c1,0.4,1.8,1,2.3,1.7l-2.8,2.5c-0.3-0.4-0.6-0.7-1.1-1s-1.1-0.5-1.9-0.5c-0.8,0-1.5,0.2-2.2,0.5s-1.2,0.8-1.7,1.4
			c-0.5,0.6-0.8,1.2-1.1,1.9C4.1,194.5,4,195.2,4,196c0,0.5,0.1,1.1,0.3,1.6c0.2,0.5,0.4,0.9,0.8,1.3c0.3,0.4,0.7,0.6,1.2,0.9
			c0.5,0.2,1.1,0.3,1.7,0.3c0.7,0,1.4-0.1,2-0.4c0.6-0.3,1.2-0.7,1.7-1.3L13.7,200.7z"/>
		<path class="st2" d="M36.7,190.7c-0.3-0.8-0.8-1.6-1.5-2.2c-0.6-0.6-1.4-1.1-2.4-1.4c-0.9-0.3-2-0.5-3.2-0.5
			c-1.4,0-2.7,0.2-3.9,0.8c-1.2,0.5-2.2,1.2-3,2.1c-0.9,0.9-1.5,1.9-2,3.1S20,195,20,196.4c0,1,0.1,2,0.5,2.9
			c0.3,0.8,0.8,1.6,1.5,2.2c0.7,0.6,1.5,1.1,2.5,1.4s2.1,0.5,3.3,0.5c1.4,0,2.7-0.3,3.8-0.8c1.2-0.5,2.2-1.2,3-2.1
			c0.8-0.9,1.4-1.9,1.9-3.1s0.7-2.4,0.7-3.8C37.2,192.5,37.1,191.6,36.7,190.7z M33,196.2c-0.2,0.7-0.5,1.3-1,1.9
			c-0.5,0.6-1,1.1-1.7,1.4c-0.6,0.3-1.4,0.5-2.2,0.5c-0.7,0-1.2-0.1-1.8-0.3c-0.5-0.3-0.9-0.5-1.3-0.9c-0.4-0.4-0.6-0.8-0.8-1.3
			s-0.3-1-0.3-1.6c0-0.7,0.1-1.5,0.4-2.2s0.6-1.3,1.1-1.9c0.5-0.6,1.1-1.1,1.7-1.4c0.7-0.3,1.4-0.5,2.2-0.5c0.6,0,1.2,0.1,1.7,0.3
			c0.5,0.3,1,0.5,1.3,0.9c0.4,0.4,0.6,0.8,0.8,1.3c0.2,0.5,0.3,1,0.3,1.6C33.4,194.7,33.2,195.5,33,196.2z"/>
		<path class="st2" d="M56.1,194.4c0.7-0.8,1.1-1.9,1.1-3.2s-0.5-2.4-1.5-3.1s-2.3-1.1-4.1-1.1h-5.5l-2.8,16H47l1-6.4h1.5l2.7,6.4
			h4.3l-3.3-6.9C54.4,195.8,55.4,195.2,56.1,194.4z M52.6,193.3c-0.6,0.3-1.4,0.5-2.4,0.5v-0.1h-1.7l0.7-3.8h1.6
			c0.8,0,1.4,0.2,1.9,0.4c0.5,0.3,0.7,0.7,0.7,1.4S53.2,193,52.6,193.3z"/>
		<path class="st2" d="M75.5,188.2c-1-0.8-2.4-1.2-4.3-1.2v0.1h-5.3l-2.8,16h3.7l1.1-6.1H70c1.1,0,2-0.1,2.9-0.3
			c0.8-0.2,1.6-0.6,2.2-1c0.6-0.4,1.1-1,1.4-1.7c0.3-0.7,0.5-1.5,0.5-2.5C77,190.1,76.5,189,75.5,188.2z M72.3,193.4
			c-0.5,0.4-1.3,0.5-2.3,0.5h-1.5l0.7-3.9h1.5c0.3,0,0.7,0,1,0.1c0.3,0.1,0.6,0.2,0.8,0.3s0.4,0.3,0.5,0.5c0.1,0.3,0.2,0.5,0.2,0.9
			C73.2,192.5,72.9,193.1,72.3,193.4z"/>
		<path class="st2" d="M99.5,190.7c-0.3-0.8-0.8-1.6-1.5-2.2c-0.6-0.6-1.4-1.1-2.4-1.4c-0.9-0.3-2-0.5-3.2-0.5
			c-1.4,0-2.6,0.2-3.8,0.8c-1.2,0.5-2.2,1.2-3,2.1c-0.9,0.9-1.5,1.9-2,3.1s-0.7,2.4-0.7,3.8c0,1,0.1,2,0.5,2.9
			c0.3,0.8,0.8,1.6,1.5,2.2c0.6,0.6,1.4,1.1,2.4,1.4s2.1,0.5,3.3,0.5c1.4,0,2.7-0.3,3.8-0.8c1.2-0.5,2.2-1.2,3-2.1
			c0.8-0.9,1.4-1.9,1.9-3.1s0.7-2.4,0.7-3.8C100,192.5,99.8,191.6,99.5,190.7z M95.8,196.2c-0.2,0.7-0.6,1.3-1,1.9
			c-0.5,0.6-1,1.1-1.7,1.4c-0.6,0.3-1.4,0.5-2.2,0.5c-0.6,0-1.2-0.1-1.8-0.3c-0.5-0.3-1-0.5-1.3-0.9c-0.4-0.4-0.6-0.8-0.8-1.3
			s-0.3-1-0.3-1.6c0-0.7,0.2-1.5,0.4-2.2c0.3-0.7,0.6-1.3,1.1-1.9c0.5-0.6,1-1.1,1.7-1.4c0.7-0.3,1.4-0.5,2.2-0.5
			c0.6,0,1.2,0.1,1.7,0.3c0.5,0.3,1,0.5,1.3,0.9c0.4,0.4,0.6,0.8,0.8,1.3c0.2,0.5,0.3,1,0.3,1.6C96.2,194.7,96,195.5,95.8,196.2z"/>
		<path class="st2" d="M119,194.4c0.7-0.8,1.1-1.9,1.1-3.2s-0.5-2.4-1.5-3.1s-2.3-1.1-4.1-1.1H109l-2.8,16h3.7l1.1-6.4h1.5l2.7,6.4
			h4.2l-3.3-6.9C117.3,195.8,118.3,195.2,119,194.4z M115.4,193.3c-0.5,0.3-1.3,0.5-2.3,0.5v-0.1h-1.8l0.7-3.8h1.6
			c0.8,0,1.4,0.2,1.9,0.4c0.5,0.3,0.7,0.7,0.7,1.4S115.9,193,115.4,193.3z"/>
		<path class="st2" d="M137.6,187h-3.7l-10.2,16h4.3l1.9-3.2h6.2l0.5,3.2h4L137.6,187z M131.5,196.8l3.3-5.7l0.9,5.7H131.5z"/>
		<path class="st2" d="M160.7,200.7c-0.3,0.3-0.7,0.7-1.1,1c-0.4,0.3-0.9,0.6-1.4,0.9c-0.5,0.2-1.1,0.4-1.8,0.6
			c-0.6,0.1-1.4,0.2-2.1,0.2c-1.1,0-2.1-0.2-3-0.5s-1.7-0.8-2.3-1.4c-0.6-0.6-1.1-1.4-1.5-2.2c-0.3-0.9-0.5-1.8-0.5-2.8
			c0-1.4,0.2-2.6,0.7-3.9c0.5-1.2,1.2-2.3,2-3.1c0.9-0.9,1.8-1.6,3-2.1c1.1-0.5,2.4-0.8,3.8-0.8c1.3,0,2.4,0.2,3.4,0.7
			c1,0.4,1.8,1,2.3,1.7l-2.8,2.5c-0.3-0.4-0.6-0.7-1.1-1s-1.1-0.5-1.9-0.5c-0.8,0-1.5,0.2-2.2,0.5c-0.6,0.3-1.2,0.8-1.7,1.4
			c-0.5,0.6-0.8,1.2-1.1,1.9s-0.4,1.5-0.4,2.3c0,0.5,0.1,1.1,0.3,1.6s0.4,0.9,0.8,1.3c0.3,0.4,0.7,0.6,1.2,0.9
			c0.5,0.2,1,0.3,1.7,0.3s1.4-0.1,2-0.4c0.6-0.3,1.2-0.7,1.7-1.3L160.7,200.7z"/>
		<polygon class="st2" points="166.9,203 169.7,187 173.5,187 170.7,203 		"/>
		<path class="st2" d="M190.2,182.5l-2.9,3.2h2.8l3.8-3.2H190.2z M196.1,190.7c-0.3-0.8-0.9-1.6-1.5-2.2c-0.6-0.6-1.5-1.1-2.4-1.4
			c-1-0.3-2.1-0.5-3.3-0.5c-1.3,0-2.6,0.2-3.7,0.8c-1.2,0.5-2.2,1.2-3,2.1c-0.9,0.9-1.5,1.9-2,3.1s-0.7,2.4-0.7,3.8
			c0,1,0.1,2,0.5,2.9c0.3,0.8,0.8,1.6,1.5,2.2c0.6,0.6,1.4,1.1,2.4,1.4s2.1,0.5,3.3,0.5c1.4,0,2.6-0.3,3.8-0.8s2.2-1.2,3-2.1
			c0.8-0.9,1.4-1.9,1.9-3.1s0.7-2.4,0.7-3.8C196.6,192.5,196.4,191.6,196.1,190.7z M192.5,196.2c-0.3,0.7-0.6,1.3-1.1,1.9
			c-0.5,0.6-1,1.1-1.7,1.4c-0.6,0.3-1.4,0.5-2.2,0.5c-0.7,0-1.3-0.1-1.7-0.3c-0.5-0.3-1-0.5-1.3-0.9c-0.4-0.4-0.6-0.8-0.8-1.3
			s-0.3-1-0.3-1.6c0-0.7,0.2-1.5,0.4-2.2c0.3-0.7,0.6-1.3,1.1-1.9c0.5-0.6,1-1.1,1.7-1.4c0.7-0.3,1.4-0.5,2.2-0.5
			c0.6,0,1.2,0.1,1.7,0.3c0.5,0.3,1,0.5,1.3,0.9c0.4,0.4,0.6,0.8,0.8,1.3c0.2,0.5,0.3,1,0.3,1.6
			C192.9,194.7,192.7,195.5,192.5,196.2z"/>
		<polygon class="st2" points="212.7,203 208.3,192.4 208.2,192.4 206.4,203 202.7,203 205.5,187 209.7,187 214.1,197.5 
			214.1,197.5 215.9,187 219.7,187 216.8,203 		"/>
		<polygon class="st2" points="242,190.2 241.4,193.6 247.4,193.6 246.8,196.7 240.9,196.7 239.8,203 236.1,203 238.9,187 
			248.9,187 248.4,190.2 		"/>
		<polygon class="st2" points="253.7,203 256.5,187 260.3,187 257.5,203 		"/>
		<polygon class="st2" points="275.7,203 271.3,192.4 271.3,192.4 269.5,203 265.8,203 268.6,187 272.8,187 277.2,197.5 
			277.2,197.5 279,187 282.7,187 279.9,203 		"/>
		<path class="st2" d="M300.1,187h-3.6l-10.2,16h4.3l1.9-3.2h6.2l0.5,3.2h3.9L300.1,187z M294.1,196.8l3.3-5.7l0.9,5.7H294.1z"/>
		<polygon class="st2" points="319.5,203 315.1,192.4 315,192.4 313.2,203 309.5,203 312.3,187 316.6,187 320.9,197.5 321,197.5 
			322.8,187 326.5,187 323.7,203 		"/>
		<path class="st2" d="M346.5,200.7c-0.3,0.3-0.7,0.7-1.1,1s-0.9,0.6-1.4,0.9c-0.5,0.2-1.1,0.4-1.8,0.6c-0.6,0.1-1.3,0.2-2.1,0.2
			c-1.1,0-2.1-0.2-3-0.5s-1.7-0.8-2.3-1.4c-0.6-0.6-1.1-1.4-1.5-2.2c-0.4-0.9-0.5-1.8-0.5-2.8c0-1.4,0.2-2.6,0.7-3.9
			c0.5-1.2,1.2-2.3,2-3.1c0.8-0.9,1.8-1.6,3-2.1s2.4-0.8,3.8-0.8c1.2,0,2.4,0.2,3.4,0.7c1,0.4,1.8,1,2.3,1.7l-2.8,2.5
			c-0.3-0.4-0.6-0.7-1.1-1s-1.1-0.5-1.9-0.5s-1.5,0.2-2.2,0.5s-1.2,0.8-1.7,1.4c-0.5,0.6-0.8,1.2-1.1,1.9c-0.3,0.7-0.4,1.5-0.4,2.3
			c0,0.5,0.1,1.1,0.3,1.6c0.2,0.5,0.4,0.9,0.8,1.3c0.3,0.4,0.7,0.6,1.2,0.9c0.5,0.2,1.1,0.3,1.7,0.3c0.7,0,1.4-0.1,2-0.4
			c0.6-0.3,1.2-0.7,1.7-1.3L346.5,200.7z"/>
		<polygon class="st2" points="352.7,203 355.5,187 359.3,187 356.4,203 		"/>
		<polygon class="st2" points="364.8,203 367.6,187 377.8,187 377.2,190.2 370.6,190.2 370.1,193.3 376.4,193.3 375.8,196.3 
			369.5,196.3 368.9,199.7 376.2,199.7 375.6,203 		"/>
		<path class="st2" d="M395.8,194.4c0.7-0.8,1.1-1.9,1.1-3.2s-0.5-2.4-1.5-3.1s-2.3-1.1-4.1-1.1h-5.5l-2.8,16h3.7l1.1-6.4h1.5
			l2.7,6.4h4.2l-3.3-6.9C394.1,195.8,395.1,195.2,395.8,194.4z M392.3,193.3c-0.6,0.3-1.4,0.5-2.4,0.5v-0.1h-1.7l0.7-3.8h1.6
			c0.8,0,1.5,0.2,1.9,0.4c0.5,0.3,0.7,0.7,0.7,1.4S392.8,193,392.3,193.3z"/>
		<path class="st2" d="M414.3,187h-3.6l-10.2,16h4.3l1.9-3.2h6.2l0.5,3.2h3.9L414.3,187z M408.3,196.8l3.3-5.7l0.9,5.7H408.3z"/>
		<polygon class="st2" points="443.9,203 439.5,192.4 439.4,192.4 437.6,203 433.9,203 436.7,187 441,187 445.3,197.5 445.4,197.5 
			447.2,187 450.9,187 448.1,203 		"/>
		<path class="st2" d="M468.3,187h-3.7l-10.2,16h4.3l1.9-3.2h6.2l0.5,3.2h4L468.3,187z M462.2,196.8l3.3-5.7l0.9,5.7H462.2z"/>
		<path class="st2" d="M491.5,200.7c-0.3,0.3-0.7,0.7-1.1,1s-0.9,0.6-1.4,0.9c-0.5,0.2-1.1,0.4-1.8,0.6c-0.6,0.1-1.3,0.2-2.1,0.2
			c-1.1,0-2.2-0.2-3-0.5c-0.9-0.3-1.7-0.8-2.3-1.4c-0.6-0.6-1.1-1.4-1.5-2.2c-0.3-0.9-0.5-1.8-0.5-2.8c0-1.4,0.2-2.6,0.7-3.9
			c0.5-1.2,1.1-2.3,2-3.1c0.8-0.9,1.8-1.6,3-2.1s2.4-0.8,3.8-0.8c1.3,0,2.4,0.2,3.4,0.7c1,0.4,1.8,1,2.3,1.7l-2.8,2.5
			c-0.3-0.4-0.6-0.7-1.1-1s-1.1-0.5-1.9-0.5s-1.5,0.2-2.2,0.5s-1.2,0.8-1.7,1.4c-0.5,0.6-0.8,1.2-1.1,1.9c-0.3,0.7-0.4,1.5-0.4,2.3
			c0,0.5,0.1,1.1,0.3,1.6c0.2,0.5,0.4,0.9,0.7,1.3c0.4,0.4,0.7,0.6,1.2,0.9c0.5,0.2,1,0.3,1.7,0.3s1.4-0.1,2-0.4
			c0.6-0.3,1.2-0.7,1.7-1.3L491.5,200.7z"/>
		<polygon class="st2" points="497.7,203 500.5,187 504.2,187 501.4,203 		"/>
		<path class="st2" d="M526.8,190.7c-0.3-0.8-0.8-1.6-1.5-2.2c-0.6-0.6-1.5-1.1-2.4-1.4c-0.9-0.3-2-0.5-3.2-0.5
			c-1.4,0-2.6,0.2-3.8,0.8c-1.2,0.5-2.2,1.2-3,2.1c-0.9,0.9-1.5,1.9-2,3.1s-0.7,2.4-0.7,3.8c0,1,0.2,2,0.5,2.9
			c0.3,0.8,0.8,1.6,1.5,2.2c0.6,0.6,1.4,1.1,2.4,1.4s2.1,0.5,3.3,0.5c1.4,0,2.6-0.3,3.8-0.8s2.2-1.2,3-2.1c0.8-0.9,1.4-1.9,1.9-3.1
			s0.7-2.4,0.7-3.8C527.3,192.5,527.1,191.6,526.8,190.7z M523.1,196.2c-0.2,0.7-0.5,1.3-1,1.9c-0.5,0.6-1.1,1.1-1.7,1.4
			c-0.6,0.3-1.4,0.5-2.2,0.5c-0.6,0-1.2-0.1-1.9-0.3c-0.5-0.3-1-0.5-1.3-0.9c-0.4-0.4-0.6-0.8-0.8-1.3s-0.3-1-0.3-1.6
			c0-0.7,0.2-1.5,0.4-2.2c0.3-0.7,0.6-1.3,1.1-1.9c0.5-0.6,1.1-1.1,1.7-1.4c0.6-0.3,1.4-0.5,2.2-0.5c0.6,0,1.2,0.1,1.7,0.3
			c0.5,0.3,0.9,0.5,1.3,0.9c0.4,0.4,0.6,0.8,0.8,1.3c0.2,0.5,0.3,1,0.3,1.6C523.4,194.7,523.3,195.5,523.1,196.2z"/>
		<polygon class="st2" points="543.4,203 539,192.4 539,192.4 537.1,203 533.5,203 536.3,187 540.5,187 544.9,197.5 544.9,197.5 
			546.7,187 550.4,187 547.6,203 		"/>
		<path class="st2" d="M567.9,187h-3.7L554,203h4.2l1.9-3.2h6.2l0.5,3.2h4.1L567.9,187z M561.8,196.8l3.3-5.7l0.9,5.7H561.8z"/>
		<polygon class="st2" points="577.2,203 580,187 583.8,187 581.5,199.7 587.8,199.7 587.2,203 		"/>
	</g>
</g>
</svg>
